<svg xmlns="http://www.w3.org/2000/svg" xmlns:xlink="http://www.w3.org/1999/xlink" width="512" zoomAndPan="magnify" viewBox="0 0 384 383.999986" height="512" preserveAspectRatio="xMidYMid meet" version="1.0"><defs><g/><clipPath id="bb48069f0b"><rect x="0" width="293" y="0" height="384"/></clipPath><clipPath id="fc18450dd8"><path d="M 20.140625 43.617188 L 102.683594 43.617188 L 102.683594 126.160156 L 20.140625 126.160156 Z M 20.140625 43.617188 " clip-rule="nonzero"/></clipPath><clipPath id="87e201e3ef"><path d="M 61.414062 43.617188 C 38.617188 43.617188 20.140625 62.09375 20.140625 84.890625 C 20.140625 107.683594 38.617188 126.160156 61.414062 126.160156 C 84.207031 126.160156 102.683594 107.683594 102.683594 84.890625 C 102.683594 62.09375 84.207031 43.617188 61.414062 43.617188 Z M 61.414062 43.617188 " clip-rule="nonzero"/></clipPath><clipPath id="075e322595"><path d="M 0.140625 0.617188 L 82.683594 0.617188 L 82.683594 83.160156 L 0.140625 83.160156 Z M 0.140625 0.617188 " clip-rule="nonzero"/></clipPath><clipPath id="f95a637f08"><path d="M 41.414062 0.617188 C 18.617188 0.617188 0.140625 19.09375 0.140625 41.890625 C 0.140625 64.683594 18.617188 83.160156 41.414062 83.160156 C 64.207031 83.160156 82.683594 64.683594 82.683594 41.890625 C 82.683594 19.09375 64.207031 0.617188 41.414062 0.617188 Z M 41.414062 0.617188 " clip-rule="nonzero"/></clipPath><clipPath id="caacd47056"><rect x="0" width="83" y="0" height="84"/></clipPath></defs><rect x="-38.4" width="460.8" fill="#ffffff" y="-38.399999" height="460.799983" fill-opacity="1"/><rect x="-38.4" width="460.8" fill="#201e1f" y="-38.399999" height="460.799983" fill-opacity="1"/><g transform="matrix(1, 0, 0, 1, 78, 0)"><g clip-path="url(#bb48069f0b)"><g fill="#ffffff" fill-opacity="1"><g transform="translate(0.650479, 324.20012)"><g><path d="M 53.796875 0 C 43.492188 0 34.664062 -3.492188 27.3125 -10.484375 C 19.769531 -17.472656 16 -25.929688 16 -35.859375 L 16 -135.171875 C 16 -152.816406 19.398438 -169.640625 26.203125 -185.640625 C 33.003906 -201.640625 42.476562 -215.707031 54.625 -227.84375 C 66.757812 -239.988281 80.734375 -249.414062 96.546875 -256.125 C 112.359375 -262.832031 129.09375 -266.1875 146.75 -266.1875 C 164.59375 -266.1875 181.648438 -262.832031 197.921875 -256.125 C 214.191406 -249.414062 228.582031 -239.988281 241.09375 -227.84375 C 253.59375 -215.707031 263.382812 -201.640625 270.46875 -185.640625 C 277.550781 -169.640625 281.09375 -152.816406 281.09375 -135.171875 L 281.09375 -35.859375 C 281.09375 -25.742188 277.691406 -17.285156 270.890625 -10.484375 C 263.898438 -3.492188 255.347656 0 245.234375 0 C 234.742188 0 226.007812 -3.492188 219.03125 -10.484375 C 211.664062 -17.285156 207.984375 -25.742188 207.984375 -35.859375 L 207.984375 -134.890625 C 207.617188 -150.890625 201.273438 -164.5 188.953125 -175.71875 C 183.253906 -181.050781 176.726562 -185.1875 169.375 -188.125 C 162.019531 -191.070312 154.476562 -192.546875 146.75 -192.546875 C 139.03125 -192.546875 131.675781 -191.117188 124.6875 -188.265625 C 117.695312 -185.410156 111.71875 -181.503906 106.75 -176.546875 C 101.601562 -171.390625 97.507812 -165.363281 94.46875 -158.46875 C 91.4375 -151.570312 89.832031 -144.265625 89.65625 -136.546875 L 89.65625 -35.859375 C 89.65625 -25.554688 86.160156 -17.097656 79.171875 -10.484375 C 72.179688 -3.492188 63.722656 0 53.796875 0 Z M 53.796875 0 "/></g></g></g></g></g><g clip-path="url(#fc18450dd8)"><g clip-path="url(#87e201e3ef)"><g transform="matrix(1, 0, 0, 1, 20, 43)"><g clip-path="url(#caacd47056)"><g clip-path="url(#075e322595)"><g clip-path="url(#f95a637f08)"><path fill="#fc2e20" d="M 0.140625 0.617188 L 82.683594 0.617188 L 82.683594 83.160156 L 0.140625 83.160156 Z M 0.140625 0.617188 " fill-opacity="1" fill-rule="nonzero"/></g></g></g></g></g></g></svg>